<svg xmlns="http://www.w3.org/2000/svg" width="700" height="130" viewBox="-18.0 -50.0 365.8 68.0">
  
  <path d="M -14 -34 L -14 -46 L -2 -46" stroke="#B8922A" stroke-width="1.5" fill="none" stroke-linecap="round" stroke-linejoin="round"/>
<path d="M 331.8112 -46 L 343.8112 -46 L 343.8112 -34" stroke="#B8922A" stroke-width="1.5" fill="none" stroke-linecap="round" stroke-linejoin="round"/>
<path d="M -14 2 L -14 14 L -2 14" stroke="#B8922A" stroke-width="1.5" fill="none" stroke-linecap="round" stroke-linejoin="round"/>
<path d="M 331.8112 14 L 343.8112 14 L 343.8112 2" stroke="#B8922A" stroke-width="1.5" fill="none" stroke-linecap="round" stroke-linejoin="round"/>
  <path d="M6.656000000000001 -29.593600000000002Q5.12 -31.3856 2.5088 -31.3856Q2.4064 -31.3856 2.4064 -31.6928Q2.4064 -32.0 2.5088 -32.0L5.5808 -31.8976L7.833600000000001 -32.0Q8.5504 -32.0 8.96 -31.5136Q9.3696 -31.0272 10.1888 -29.337600000000002L21.7088 -4.454400000000001L33.1776 -30.720000000000002Q33.4336 -31.2832 33.8688 -31.6416Q34.304 -32.0 34.7136 -32.0L36.6592 -31.8976L38.9632 -31.948800000000002Q39.4752 -32.0 40.5504 -32.0Q40.6528 -32.0 40.6528 -31.6928Q40.6528 -31.3856 40.5504 -31.3856Q37.888000000000005 -31.3856 36.7872 -30.6944Q35.6864 -30.003200000000003 35.7376 -27.9552L36.7104 -4.1472Q36.7616 -2.56 37.0944 -1.8432Q37.4272 -1.1264 38.3744 -0.8704000000000001Q39.321600000000004 -0.6144000000000001 41.318400000000004 -0.6144000000000001Q41.472 -0.6144000000000001 41.472 -0.30720000000000003Q41.472 0.0 41.318400000000004 0.0Q39.7312 0.0 38.8096 -0.0512L35.379200000000004 -0.1024L32.2048 -0.0512Q31.4368 0.0 30.0544 0.0Q29.952 0.0 29.952 -0.30720000000000003Q29.952 -0.6144000000000001 30.0544 -0.6144000000000001Q31.846400000000003 -0.6144000000000001 32.6912 -0.896Q33.536 -1.1776 33.8176 -1.8944Q34.0992 -2.6112 33.9968 -4.1472L33.126400000000004 -27.9552L21.1456 -0.3584Q21.043200000000002 -0.15360000000000001 20.736 -0.15360000000000001Q20.48 -0.15360000000000001 20.2752 -0.3584L7.7824 -27.750400000000003L7.7312 -27.852800000000002L7.3216 -5.324800000000001Q7.2704 -2.6624000000000003 8.192 -1.6384000000000003Q9.1136 -0.6144000000000001 11.6224 -0.6144000000000001Q11.7248 -0.6144000000000001 11.7248 -0.30720000000000003Q11.7248 0.0 11.6224 0.0Q10.1888 0.0 9.4208 -0.0512L6.656000000000001 -0.1024L2.1504000000000003 0.0Q2.048 0.0 2.048 -0.30720000000000003Q2.048 -0.6144000000000001 2.1504000000000003 -0.6144000000000001Q4.300800000000001 -0.6144000000000001 5.1968000000000005 -1.6640000000000001Q6.0928 -2.7136 6.144 -5.324800000000001Z" fill="#0A1628"/>
<path d="M56.7488 -0.6144000000000001Q58.7456 -0.6144000000000001 59.692800000000005 -0.8704000000000001Q60.64 -1.1264 60.97280000000001 -1.8688000000000002Q61.305600000000005 -2.6112 61.305600000000005 -4.1472V-27.852800000000002Q61.305600000000005 -29.3888 60.97280000000001 -30.105600000000003Q60.64 -30.822400000000002 59.692800000000005 -31.104Q58.7456 -31.3856 56.7488 -31.3856Q56.6464 -31.3856 56.6464 -31.6928Q56.6464 -32.0 56.7488 -32.0H77.024Q77.4848 -32.0 77.4848 -31.5392L77.5872 -25.344Q77.5872 -25.1904 77.3056 -25.1904Q77.024 -25.1904 77.024 -25.344Q77.024 -27.9552 75.64160000000001 -29.4912Q74.2592 -31.0272 72.0064 -31.0272H68.4736Q66.528 -31.0272 65.60640000000001 -30.7712Q64.6848 -30.5152 64.352 -29.7984Q64.0192 -29.0816 64.0192 -27.5456V-17.152H70.7776Q73.1328 -17.152 74.0544 -17.9456Q74.976 -18.7392 74.976 -20.684800000000003Q74.976 -20.787200000000002 75.2832 -20.787200000000002Q75.5904 -20.787200000000002 75.5904 -20.684800000000003L75.53920000000001 -16.64L75.64160000000001 -12.032Q75.64160000000001 -11.9296 75.33440000000002 -11.9296Q75.02720000000001 -11.9296 75.02720000000001 -12.032Q75.02720000000001 -14.336 74.05440000000002 -15.2576Q73.08160000000001 -16.1792 70.624 -16.1792H64.0192V-4.352Q64.0192 -2.8672 64.352 -2.176Q64.6848 -1.4848000000000001 65.5808 -1.2288000000000001Q66.4768 -0.9728 68.4736 -0.9728H73.184Q75.232 -0.9728 76.69120000000001 -2.7648Q78.1504 -4.5568 78.56 -7.4752Q78.56 -7.6288 78.8672 -7.6032Q79.1744 -7.5776 79.1744 -7.424Q78.7136 -4.1984 78.7136 -0.768Q78.7136 -0.3584 78.5344 -0.1792Q78.3552 0.0 77.8944 0.0H56.7488Q56.6464 0.0 56.6464 -0.30720000000000003Q56.6464 -0.6144000000000001 56.7488 -0.6144000000000001Z" fill="#0A1628"/>
<path d="M108.6848 -16.691200000000002Q107.2 -16.2816 105.5616 -16.2816L103.36 -16.384V-4.1472Q103.36 -2.56 103.6928 -1.8432Q104.0256 -1.1264 104.94720000000001 -0.8704000000000001Q105.86880000000001 -0.6144000000000001 107.91680000000001 -0.6144000000000001Q108.0704 -0.6144000000000001 108.0704 -0.30720000000000003Q108.0704 0.0 107.91680000000001 0.0Q106.38080000000001 0.0 105.45920000000001 -0.0512L101.9776 -0.1024L96.0384 0.0Q95.936 0.0 95.936 -0.30720000000000003Q95.936 -0.6144000000000001 96.0384 -0.6144000000000001Q98.0864 -0.6144000000000001 99.0336 -0.8704000000000001Q99.9808 -1.1264 100.3392 -1.8688000000000002Q100.69760000000001 -2.6112 100.69760000000001 -4.1472V-27.852800000000002Q100.69760000000001 -29.3888 100.3648 -30.105600000000003Q100.032 -30.822400000000002 99.0848 -31.104Q98.1376 -31.3856 96.1408 -31.3856Q95.9872 -31.3856 95.9872 -31.6928Q95.9872 -32.0 96.1408 -32.0L98.5984 -31.948800000000002Q100.6464 -31.846400000000003 101.9776 -31.846400000000003L105.152 -32.0Q106.7904 -32.153600000000004 107.968 -32.153600000000004Q112.0128 -32.153600000000004 114.1632 -30.464000000000002Q116.31360000000001 -28.7744 116.31360000000001 -25.753600000000002Q116.31360000000001 -23.296 114.88000000000001 -21.12Q113.44640000000001 -18.944000000000003 111.0912 -17.664Q115.54560000000001 -11.1104 118.51520000000001 -7.4752Q121.4848 -3.8400000000000003 123.8144 -2.2272000000000003Q126.144 -0.6144000000000001 128.3968 -0.6144000000000001Q128.5504 -0.6144000000000001 128.5504 -0.30720000000000003Q128.5504 0.0 128.3968 0.0H122.4576Q121.1264 0.0 117.49119999999999 -4.4288Q113.856 -8.8576 108.6848 -16.691200000000002ZM106.7904 -31.488000000000003Q105.3568 -31.488000000000003 104.69120000000001 -31.2832Q104.0256 -31.078400000000002 103.6928 -30.3104Q103.36 -29.5424 103.36 -27.750400000000003V-17.6128Q105.3056 -17.408 106.432 -17.408Q110.1696 -17.408 111.808 -18.9696Q113.44640000000001 -20.531200000000002 113.44640000000001 -24.012800000000002Q113.44640000000001 -27.904 111.62880000000001 -29.696Q109.8112 -31.488000000000003 106.7904 -31.488000000000003Z" fill="#0A1628"/>
<path d="M154.3232 -0.6144000000000001Q154.4256 -0.6144000000000001 154.4256 -0.30720000000000003Q154.4256 0.0 154.3232 0.0Q152.7872 0.0 151.9168 -0.0512L148.33280000000002 -0.1024L144.9024 -0.0512Q143.98080000000002 0.0 142.39360000000002 0.0Q142.24 0.0 142.24 -0.30720000000000003Q142.24 -0.6144000000000001 142.39360000000002 -0.6144000000000001Q144.3904 -0.6144000000000001 145.3376 -0.8704000000000001Q146.28480000000002 -1.1264 146.6432 -1.8688000000000002Q147.0016 -2.6112 147.0016 -4.1472V-27.852800000000002Q147.0016 -29.3888 146.6432 -30.105600000000003Q146.28480000000002 -30.822400000000002 145.3376 -31.104Q144.3904 -31.3856 142.39360000000002 -31.3856Q142.24 -31.3856 142.24 -31.6928Q142.24 -32.0 142.39360000000002 -32.0L144.9024 -31.948800000000002Q147.05280000000002 -31.846400000000003 148.33280000000002 -31.846400000000003Q149.7664 -31.846400000000003 151.9168 -31.948800000000002L154.3232 -32.0Q154.4256 -32.0 154.4256 -31.6928Q154.4256 -31.3856 154.3232 -31.3856Q152.3264 -31.3856 151.37920000000003 -31.078400000000002Q150.43200000000002 -30.7712 150.0992 -30.0288Q149.7664 -29.2864 149.7664 -27.750400000000003V-4.1472Q149.7664 -2.56 150.0992 -1.8432Q150.43200000000002 -1.1264 151.35360000000003 -0.8704000000000001Q152.2752 -0.6144000000000001 154.3232 -0.6144000000000001Z" fill="#0A1628"/>
<path d="M180.7104 0.0512Q179.6352 0.0 178.6112 -0.0512Q177.5872 -0.1024 176.6144 -0.1024L170.6752 0.0Q170.5728 0.0 170.5728 -0.30720000000000003Q170.5728 -0.6144000000000001 170.6752 -0.6144000000000001Q172.672 -0.6144000000000001 173.61919999999998 -0.8704000000000001Q174.5664 -1.1264 174.9248 -1.8688000000000002Q175.2832 -2.6112 175.2832 -4.1472V-27.852800000000002Q175.2832 -29.3888 174.9504 -30.105600000000003Q174.61759999999998 -30.822400000000002 173.67039999999997 -31.104Q172.7232 -31.3856 170.72639999999998 -31.3856Q170.624 -31.3856 170.624 -31.6928Q170.624 -32.0 170.72639999999998 -32.0L173.2352 -31.948800000000002Q175.38559999999998 -31.846400000000003 176.6144 -31.846400000000003Q178.4064 -31.846400000000003 180.2496 -32.0L183.3216 -32.1024Q188.6976 -32.1024 192.8448 -30.0544Q196.992 -28.006400000000003 199.2704 -24.4736Q201.5488 -20.9408 201.5488 -16.5376Q201.5488 -11.571200000000001 199.168 -7.7568Q196.78719999999998 -3.9424 192.79359999999997 -1.8688Q188.79999999999998 0.2048 184.0384 0.2048Q182.5536 0.2048 180.7104 0.0512ZM198.2208 -15.411200000000001Q198.2208 -19.916800000000002 196.4544 -23.552Q194.688 -27.1872 191.3856 -29.312Q188.0832 -31.4368 183.7824 -31.4368Q181.5296 -31.4368 180.32639999999998 -31.1808Q179.1232 -30.9248 178.56 -30.1312Q177.9968 -29.337600000000002 177.9968 -27.750400000000003V-4.7104Q177.9968 -3.1744000000000003 178.4576 -2.2528Q178.9184 -1.3312000000000002 180.096 -0.8960000000000001Q181.2736 -0.46080000000000004 183.5264 -0.46080000000000004Q187.8272 -0.46080000000000004 191.1552 -2.2016Q194.4832 -3.9424 196.352 -7.3216Q198.2208 -10.700800000000001 198.2208 -15.411200000000001Z" fill="#0A1628"/>
<path d="M230.4448 -0.6144000000000001Q230.54719999999998 -0.6144000000000001 230.54719999999998 -0.30720000000000003Q230.54719999999998 0.0 230.4448 0.0Q228.90879999999999 0.0 228.03839999999997 -0.0512L224.4544 -0.1024L221.02399999999997 -0.0512Q220.1024 0.0 218.5152 0.0Q218.36159999999998 0.0 218.36159999999998 -0.30720000000000003Q218.36159999999998 -0.6144000000000001 218.5152 -0.6144000000000001Q220.51199999999997 -0.6144000000000001 221.45919999999998 -0.8704000000000001Q222.4064 -1.1264 222.76479999999998 -1.8688000000000002Q223.12319999999997 -2.6112 223.12319999999997 -4.1472V-27.852800000000002Q223.12319999999997 -29.3888 222.76479999999998 -30.105600000000003Q222.4064 -30.822400000000002 221.45919999999998 -31.104Q220.51199999999997 -31.3856 218.5152 -31.3856Q218.36159999999998 -31.3856 218.36159999999998 -31.6928Q218.36159999999998 -32.0 218.5152 -32.0L221.02399999999997 -31.948800000000002Q223.1744 -31.846400000000003 224.4544 -31.846400000000003Q225.88799999999998 -31.846400000000003 228.03839999999997 -31.948800000000002L230.4448 -32.0Q230.54719999999998 -32.0 230.54719999999998 -31.6928Q230.54719999999998 -31.3856 230.4448 -31.3856Q228.44799999999998 -31.3856 227.50079999999997 -31.078400000000002Q226.5536 -30.7712 226.2208 -30.0288Q225.88799999999998 -29.2864 225.88799999999998 -27.750400000000003V-4.1472Q225.88799999999998 -2.56 226.2208 -1.8432Q226.5536 -1.1264 227.47519999999997 -0.8704000000000001Q228.39679999999998 -0.6144000000000001 230.4448 -0.6144000000000001Z" fill="#0A1628"/>
<path d="M280.4864 0.0Q279.5648 0.0 277.5168 -0.1024Q275.5712 -0.2048 274.6496 -0.2048Q273.57439999999997 -0.2048 271.8336 -0.1024Q270.1952 0.0 269.376 0.0Q269.1712 0.0 269.1712 -0.30720000000000003Q269.1712 -0.6144000000000001 269.376 -0.6144000000000001Q271.4752 -0.6144000000000001 272.3968 -0.9984000000000001Q273.3184 -1.3824 273.3184 -2.3040000000000003Q273.3184 -3.0208 272.7552 -4.300800000000001L266.6624 -17.3568H256.8832L252.27519999999998 -6.2976Q251.5584 -4.5568 251.5584 -3.4304Q251.5584 -1.9456 252.78719999999998 -1.28Q254.016 -0.6144000000000001 256.6272 -0.6144000000000001Q256.8832 -0.6144000000000001 256.8832 -0.30720000000000003Q256.8832 0.0 256.6272 0.0Q255.7056 0.0 253.9648 -0.1024Q252.01919999999998 -0.2048 250.5856 -0.2048Q249.3056 -0.2048 247.5648 -0.1024Q246.0288 0.0 245.05599999999998 0.0Q244.79999999999998 0.0 244.79999999999998 -0.30720000000000003Q244.79999999999998 -0.6144000000000001 245.05599999999998 -0.6144000000000001Q246.4896 -0.6144000000000001 247.488 -1.1264Q248.4864 -1.6384 249.38240000000002 -2.9696000000000002Q250.2784 -4.300800000000001 251.3024 -6.7584L262.0032 -32.512Q262.1056 -32.665600000000005 262.336 -32.665600000000005Q262.5664 -32.665600000000005 262.6176 -32.512L274.496 -7.0144Q275.6736 -4.4032 276.5952 -3.0464Q277.5168 -1.6896 278.4128 -1.1520000000000001Q279.3088 -0.6144000000000001 280.4864 -0.6144000000000001Q280.6912 -0.6144000000000001 280.6912 -0.30720000000000003Q280.6912 0.0 280.4864 0.0ZM266.2528 -18.3296 261.4912 -28.467200000000002 257.2928 -18.3296Z" fill="#0A1628"/>
<path d="M298.7328 -29.849600000000002Q296.94079999999997 -31.3856 295.0464 -31.3856Q294.89279999999997 -31.3856 294.89279999999997 -31.6928Q294.89279999999997 -32.0 295.0464 -32.0L298.47679999999997 -31.8976L300.7808 -32.0Q301.13919999999996 -32.0 301.3696 -31.8208Q301.59999999999997 -31.6416 301.9072 -31.078400000000002Q302.4704 -30.1568 303.13599999999997 -29.337600000000002L323.35999999999996 -4.1984V-26.624000000000002Q323.35999999999996 -29.235200000000003 322.5408 -30.3104Q321.72159999999997 -31.3856 319.5712 -31.3856Q319.4688 -31.3856 319.4688 -31.6928Q319.4688 -32.0 319.5712 -32.0L321.5168 -31.948800000000002Q323.0528 -31.846400000000003 323.9744 -31.846400000000003Q324.84479999999996 -31.846400000000003 326.4832 -31.948800000000002L328.47999999999996 -32.0Q328.6336 -32.0 328.6336 -31.6928Q328.6336 -31.3856 328.47999999999996 -31.3856Q326.2784 -31.3856 325.38239999999996 -30.3104Q324.4864 -29.235200000000003 324.4864 -26.624000000000002V0.5632Q324.4864 0.6656000000000001 324.23040000000003 0.7168000000000001Q323.9744 0.768 323.87199999999996 0.6656000000000001L300.7296 -27.8016L299.8592 -28.7744V-5.324800000000001Q299.8592 -2.7136 300.7296 -1.6640000000000001Q301.59999999999997 -0.6144000000000001 303.75039999999996 -0.6144000000000001Q303.904 -0.6144000000000001 303.904 -0.30720000000000003Q303.904 0.0 303.75039999999996 0.0Q302.5216 0.0 301.856 -0.0512L299.3984 -0.1024L294.89279999999997 0.0Q294.7904 0.0 294.7904 -0.30720000000000003Q294.7904 -0.6144000000000001 294.89279999999997 -0.6144000000000001Q297.0944 -0.6144000000000001 297.9136 -1.6384000000000003Q298.7328 -2.6624000000000003 298.7328 -5.324800000000001Z" fill="#0A1628"/>
</svg>