<svg xmlns="http://www.w3.org/2000/svg" width="220" height="208" viewBox="0 0 220 208">
  <g transform="translate(30,0)">
    <path d="M 8 20 L 8 8 L 20 8" stroke="#B8922A" stroke-width="2.5" fill="none" stroke-linecap="round" stroke-linejoin="round"/>
<path d="M 140 8 L 152 8 L 152 20" stroke="#B8922A" stroke-width="2.5" fill="none" stroke-linecap="round" stroke-linejoin="round"/>
<path d="M 8 140 L 8 152 L 20 152" stroke="#B8922A" stroke-width="2.5" fill="none" stroke-linecap="round" stroke-linejoin="round"/>
<path d="M 140 152 L 152 152 L 152 140" stroke="#B8922A" stroke-width="2.5" fill="none" stroke-linecap="round" stroke-linejoin="round"/>
    <path d="M34.39999999999999 37.519999999999996Q29.599999999999994 31.92 21.439999999999994 31.92Q21.119999999999994 31.92 21.119999999999994 30.96Q21.119999999999994 30.0 21.439999999999994 30.0L31.039999999999996 30.319999999999993L38.08 30.0Q40.31999999999999 30.0 41.599999999999994 31.519999999999996Q42.879999999999995 33.03999999999999 45.44 38.31999999999999L81.44 116.08L117.28 34.0Q118.08 32.239999999999995 119.44 31.119999999999997Q120.8 30.0 122.08 30.0L128.16 30.319999999999993L135.36 30.159999999999997Q136.95999999999998 30.0 140.32 30.0Q140.64 30.0 140.64 30.96Q140.64 31.92 140.32 31.92Q132.0 31.92 128.56 34.08Q125.11999999999999 36.239999999999995 125.28 42.64L128.32 117.03999999999999Q128.48 122.0 129.51999999999998 124.24000000000001Q130.56 126.48 133.51999999999998 127.28Q136.48 128.08 142.72 128.08Q143.2 128.08 143.2 129.04000000000002Q143.2 130.0 142.72 130.0Q137.76 130.0 134.88 129.84L124.16 129.68L114.24 129.84Q111.84 130.0 107.52 130.0Q107.2 130.0 107.2 129.04000000000002Q107.2 128.08 107.52 128.08Q113.11999999999999 128.08 115.75999999999999 127.2Q118.39999999999999 126.32 119.28 124.08Q120.16 121.84 119.84 117.03999999999999L117.11999999999999 42.64L79.67999999999999 128.88Q79.36 129.52 78.39999999999999 129.52Q77.6 129.52 76.96 128.88L37.919999999999995 43.28L37.75999999999999 42.959999999999994L36.47999999999999 113.36Q36.31999999999999 121.68 39.199999999999996 124.88000000000001Q42.08 128.08 49.919999999999995 128.08Q50.239999999999995 128.08 50.239999999999995 129.04000000000002Q50.239999999999995 130.0 49.919999999999995 130.0Q45.44 130.0 43.03999999999999 129.84L34.39999999999999 129.68L20.319999999999993 130.0Q19.999999999999993 130.0 19.999999999999993 129.04000000000002Q19.999999999999993 128.08 20.319999999999993 128.08Q27.039999999999992 128.08 29.839999999999993 124.80000000000001Q32.63999999999999 121.52 32.8 113.36Z" fill="#0A1628"/>
  </g>
  <g transform="translate(28.2,194)"><path d="M2.912 -12.9472Q2.2399999999999998 -13.7312 1.0976 -13.7312Q1.0528 -13.7312 1.0528 -13.8656Q1.0528 -14.0 1.0976 -14.0L2.4415999999999998 -13.9552L3.4272 -14.0Q3.7408 -14.0 3.92 -13.7872Q4.0992 -13.5744 4.4576 -12.8352L9.4976 -1.9488L14.5152 -13.44Q14.6272 -13.686399999999999 14.817599999999999 -13.8432Q15.008 -14.0 15.1872 -14.0L16.0384 -13.9552L17.0464 -13.9776Q17.2704 -14.0 17.7408 -14.0Q17.7856 -14.0 17.7856 -13.8656Q17.7856 -13.7312 17.7408 -13.7312Q16.576 -13.7312 16.0944 -13.428799999999999Q15.6128 -13.1264 15.6352 -12.2304L16.0608 -1.8144Q16.0832 -1.1199999999999999 16.2288 -0.8064Q16.3744 -0.4928 16.788800000000002 -0.3808Q17.2032 -0.2688 18.0768 -0.2688Q18.144 -0.2688 18.144 -0.1344Q18.144 0.0 18.0768 0.0Q17.3824 0.0 16.9792 -0.0224L15.4784 -0.0448L14.089599999999999 -0.0224Q13.7536 0.0 13.1488 0.0Q13.104 0.0 13.104 -0.1344Q13.104 -0.2688 13.1488 -0.2688Q13.9328 -0.2688 14.3024 -0.392Q14.672 -0.5152 14.795200000000001 -0.8288Q14.9184 -1.1424 14.8736 -1.8144L14.492799999999999 -12.2304L9.2512 -0.1568Q9.2064 -0.0672 9.072 -0.0672Q8.959999999999999 -0.0672 8.8704 -0.1568L3.4048 -12.1408L3.3824 -12.185599999999999L3.2032 -2.3296Q3.1808 -1.1648 3.584 -0.7168Q3.9872 -0.2688 5.0847999999999995 -0.2688Q5.1296 -0.2688 5.1296 -0.1344Q5.1296 0.0 5.0847999999999995 0.0Q4.4576 0.0 4.1216 -0.0224L2.912 -0.0448L0.9408 0.0Q0.896 0.0 0.896 -0.1344Q0.896 -0.2688 0.9408 -0.2688Q1.8816 -0.2688 2.2736 -0.728Q2.6656 -1.1872 2.688 -2.3296Z" fill="#0A1628"/>
<path d="M27.5776 -0.2688Q28.4512 -0.2688 28.8656 -0.3808Q29.279999999999998 -0.4928 29.425599999999996 -0.8176000000000001Q29.571199999999997 -1.1424 29.571199999999997 -1.8144V-12.185599999999999Q29.571199999999997 -12.8576 29.425599999999996 -13.171199999999999Q29.279999999999998 -13.4848 28.8656 -13.608Q28.4512 -13.7312 27.5776 -13.7312Q27.532799999999998 -13.7312 27.532799999999998 -13.8656Q27.532799999999998 -14.0 27.5776 -14.0H36.448Q36.6496 -14.0 36.6496 -13.798399999999999L36.6944 -11.088Q36.6944 -11.0208 36.571200000000005 -11.0208Q36.448 -11.0208 36.448 -11.088Q36.448 -12.2304 35.843199999999996 -12.9024Q35.2384 -13.5744 34.2528 -13.5744H32.7072Q31.855999999999998 -13.5744 31.452799999999996 -13.4624Q31.049599999999998 -13.3504 30.903999999999996 -13.0368Q30.758399999999998 -12.7232 30.758399999999998 -12.0512V-7.504H33.715199999999996Q34.745599999999996 -7.504 35.148799999999994 -7.8511999999999995Q35.552 -8.1984 35.552 -9.0496Q35.552 -9.0944 35.6864 -9.0944Q35.8208 -9.0944 35.8208 -9.0496L35.7984 -7.28L35.843199999999996 -5.264Q35.843199999999996 -5.2192 35.7088 -5.2192Q35.5744 -5.2192 35.5744 -5.264Q35.5744 -6.272 35.148799999999994 -6.6752Q34.7232 -7.0784 33.647999999999996 -7.0784H30.758399999999998V-1.904Q30.758399999999998 -1.2544 30.903999999999996 -0.952Q31.049599999999998 -0.6496 31.441599999999998 -0.5376Q31.833599999999997 -0.4256 32.7072 -0.4256H34.768Q35.664 -0.4256 36.3024 -1.2096Q36.940799999999996 -1.9936 37.12 -3.2704Q37.12 -3.3376 37.2544 -3.3264Q37.388799999999996 -3.3152 37.388799999999996 -3.2479999999999998Q37.1872 -1.8368 37.1872 -0.336Q37.1872 -0.1568 37.1088 -0.0784Q37.0304 0.0 36.8288 0.0H27.5776Q27.532799999999998 0.0 27.532799999999998 -0.1344Q27.532799999999998 -0.2688 27.5776 -0.2688Z" fill="#0A1628"/>
<path d="M53.0496 -7.3024Q52.4 -7.1232 51.6832 -7.1232L50.72 -7.168V-1.8144Q50.72 -1.1199999999999999 50.8656 -0.8064Q51.011199999999995 -0.4928 51.4144 -0.3808Q51.8176 -0.2688 52.7136 -0.2688Q52.7808 -0.2688 52.7808 -0.1344Q52.7808 0.0 52.7136 0.0Q52.041599999999995 0.0 51.6384 -0.0224L50.1152 -0.0448L47.516799999999996 0.0Q47.472 0.0 47.472 -0.1344Q47.472 -0.2688 47.516799999999996 -0.2688Q48.4128 -0.2688 48.8272 -0.3808Q49.2416 -0.4928 49.398399999999995 -0.8176000000000001Q49.5552 -1.1424 49.5552 -1.8144V-12.185599999999999Q49.5552 -12.8576 49.4096 -13.171199999999999Q49.263999999999996 -13.4848 48.849599999999995 -13.608Q48.435199999999995 -13.7312 47.5616 -13.7312Q47.4944 -13.7312 47.4944 -13.8656Q47.4944 -14.0 47.5616 -14.0L48.6368 -13.9776Q49.532799999999995 -13.9328 50.1152 -13.9328L51.504 -14.0Q52.2208 -14.0672 52.736 -14.0672Q54.5056 -14.0672 55.4464 -13.328Q56.3872 -12.588799999999999 56.3872 -11.2672Q56.3872 -10.192 55.76 -9.24Q55.132799999999996 -8.288 54.102399999999996 -7.728Q56.051199999999994 -4.8608 57.35039999999999 -3.2704Q58.6496 -1.68 59.668800000000005 -0.9743999999999999Q60.688 -0.2688 61.6736 -0.2688Q61.7408 -0.2688 61.7408 -0.1344Q61.7408 0.0 61.6736 0.0H59.075199999999995Q58.4928 0.0 56.9024 -1.9376Q55.312 -3.8752 53.0496 -7.3024ZM52.2208 -13.776Q51.593599999999995 -13.776 51.30239999999999 -13.686399999999999Q51.011199999999995 -13.5968 50.8656 -13.2608Q50.72 -12.9248 50.72 -12.1408V-7.7056Q51.5712 -7.616 52.064 -7.616Q53.6992 -7.616 54.416 -8.299199999999999Q55.132799999999996 -8.9824 55.132799999999996 -10.5056Q55.132799999999996 -12.208 54.337599999999995 -12.992Q53.5424 -13.776 52.2208 -13.776Z" fill="#0A1628"/>
<path d="M75.76639999999999 -0.2688Q75.8112 -0.2688 75.8112 -0.1344Q75.8112 0.0 75.76639999999999 0.0Q75.0944 0.0 74.7136 -0.0224L73.14559999999999 -0.0448L71.64479999999999 -0.0224Q71.24159999999999 0.0 70.54719999999999 0.0Q70.47999999999999 0.0 70.47999999999999 -0.1344Q70.47999999999999 -0.2688 70.54719999999999 -0.2688Q71.4208 -0.2688 71.8352 -0.3808Q72.2496 -0.4928 72.40639999999999 -0.8176000000000001Q72.5632 -1.1424 72.5632 -1.8144V-12.185599999999999Q72.5632 -12.8576 72.40639999999999 -13.171199999999999Q72.2496 -13.4848 71.8352 -13.608Q71.4208 -13.7312 70.54719999999999 -13.7312Q70.47999999999999 -13.7312 70.47999999999999 -13.8656Q70.47999999999999 -14.0 70.54719999999999 -14.0L71.64479999999999 -13.9776Q72.5856 -13.9328 73.14559999999999 -13.9328Q73.77279999999999 -13.9328 74.7136 -13.9776L75.76639999999999 -14.0Q75.8112 -14.0 75.8112 -13.8656Q75.8112 -13.7312 75.76639999999999 -13.7312Q74.8928 -13.7312 74.4784 -13.5968Q74.064 -13.4624 73.91839999999999 -13.137599999999999Q73.77279999999999 -12.8128 73.77279999999999 -12.1408V-1.8144Q73.77279999999999 -1.1199999999999999 73.91839999999999 -0.8064Q74.064 -0.4928 74.46719999999999 -0.3808Q74.87039999999999 -0.2688 75.76639999999999 -0.2688Z" fill="#0A1628"/>
<path d="M90.06079999999999 0.0224Q89.59039999999999 0.0 89.14239999999998 -0.0224Q88.69439999999999 -0.0448 88.26879999999998 -0.0448L85.67039999999999 0.0Q85.62559999999999 0.0 85.62559999999999 -0.1344Q85.62559999999999 -0.2688 85.67039999999999 -0.2688Q86.544 -0.2688 86.95839999999998 -0.3808Q87.37279999999998 -0.4928 87.52959999999999 -0.8176000000000001Q87.68639999999999 -1.1424 87.68639999999999 -1.8144V-12.185599999999999Q87.68639999999999 -12.8576 87.54079999999999 -13.171199999999999Q87.39519999999999 -13.4848 86.98079999999999 -13.608Q86.56639999999999 -13.7312 85.69279999999999 -13.7312Q85.648 -13.7312 85.648 -13.8656Q85.648 -14.0 85.69279999999999 -14.0L86.79039999999999 -13.9776Q87.73119999999999 -13.9328 88.26879999999998 -13.9328Q89.05279999999999 -13.9328 89.85919999999999 -14.0L91.2032 -14.0448Q93.55519999999999 -14.0448 95.36959999999999 -13.148800000000001Q97.184 -12.2528 98.18079999999999 -10.7072Q99.17759999999998 -9.1616 99.17759999999998 -7.2352Q99.17759999999998 -5.0624 98.136 -3.3936Q97.0944 -1.7247999999999999 95.34719999999999 -0.8176Q93.6 0.0896 91.51679999999999 0.0896Q90.8672 0.0896 90.06079999999999 0.0224ZM97.7216 -6.7424Q97.7216 -8.7136 96.94879999999999 -10.303999999999998Q96.17599999999999 -11.8944 94.73119999999999 -12.824Q93.28639999999999 -13.7536 91.4048 -13.7536Q90.41919999999999 -13.7536 89.8928 -13.6416Q89.36639999999998 -13.5296 89.11999999999999 -13.182400000000001Q88.8736 -12.8352 88.8736 -12.1408V-2.0608Q88.8736 -1.3888 89.0752 -0.9856Q89.2768 -0.5824 89.792 -0.392Q90.3072 -0.2016 91.29279999999999 -0.2016Q93.17439999999999 -0.2016 94.6304 -0.9632Q96.0864 -1.7247999999999999 96.904 -3.2032Q97.7216 -4.6815999999999995 97.7216 -6.7424Z" fill="#0A1628"/>
<path d="M114.56959999999998 -0.2688Q114.61439999999999 -0.2688 114.61439999999999 -0.1344Q114.61439999999999 0.0 114.56959999999998 0.0Q113.89759999999998 0.0 113.51679999999999 -0.0224L111.94879999999998 -0.0448L110.44799999999998 -0.0224Q110.04479999999998 0.0 109.35039999999998 0.0Q109.28319999999998 0.0 109.28319999999998 -0.1344Q109.28319999999998 -0.2688 109.35039999999998 -0.2688Q110.22399999999999 -0.2688 110.63839999999999 -0.3808Q111.05279999999999 -0.4928 111.2096 -0.8176000000000001Q111.36639999999998 -1.1424 111.36639999999998 -1.8144V-12.185599999999999Q111.36639999999998 -12.8576 111.2096 -13.171199999999999Q111.05279999999999 -13.4848 110.63839999999999 -13.608Q110.22399999999999 -13.7312 109.35039999999998 -13.7312Q109.28319999999998 -13.7312 109.28319999999998 -13.8656Q109.28319999999998 -14.0 109.35039999999998 -14.0L110.44799999999998 -13.9776Q111.38879999999999 -13.9328 111.94879999999998 -13.9328Q112.57599999999998 -13.9328 113.51679999999999 -13.9776L114.56959999999998 -14.0Q114.61439999999999 -14.0 114.61439999999999 -13.8656Q114.61439999999999 -13.7312 114.56959999999998 -13.7312Q113.69599999999998 -13.7312 113.28159999999998 -13.5968Q112.86719999999998 -13.4624 112.72159999999998 -13.137599999999999Q112.57599999999998 -12.8128 112.57599999999998 -12.1408V-1.8144Q112.57599999999998 -1.1199999999999999 112.72159999999998 -0.8064Q112.86719999999998 -0.4928 113.27039999999998 -0.3808Q113.67359999999998 -0.2688 114.56959999999998 -0.2688Z" fill="#0A1628"/>
<path d="M139.2128 0.0Q138.8096 0.0 137.91359999999997 -0.0448Q137.06239999999997 -0.0896 136.65919999999997 -0.0896Q136.1888 -0.0896 135.42719999999997 -0.0448Q134.7104 0.0 134.35199999999998 0.0Q134.26239999999999 0.0 134.26239999999999 -0.1344Q134.26239999999999 -0.2688 134.35199999999998 -0.2688Q135.27039999999997 -0.2688 135.67359999999996 -0.43679999999999997Q136.0768 -0.6048 136.0768 -1.008Q136.0768 -1.3215999999999999 135.83039999999997 -1.8816L133.16479999999999 -7.5936H128.88639999999998L126.87039999999998 -2.7552Q126.55679999999998 -1.9936 126.55679999999998 -1.5008Q126.55679999999998 -0.8512 127.09439999999998 -0.5599999999999999Q127.63199999999998 -0.2688 128.77439999999999 -0.2688Q128.88639999999998 -0.2688 128.88639999999998 -0.1344Q128.88639999999998 0.0 128.77439999999999 0.0Q128.3712 0.0 127.60959999999999 -0.0448Q126.75839999999998 -0.0896 126.13119999999998 -0.0896Q125.57119999999998 -0.0896 124.80959999999997 -0.0448Q124.13759999999998 0.0 123.71199999999997 0.0Q123.59999999999998 0.0 123.59999999999998 -0.1344Q123.59999999999998 -0.2688 123.71199999999997 -0.2688Q124.33919999999998 -0.2688 124.77599999999998 -0.4928Q125.21279999999997 -0.7168 125.60479999999998 -1.2992Q125.99679999999998 -1.8816 126.44479999999999 -2.9568L131.1264 -14.224Q131.17119999999997 -14.2912 131.272 -14.2912Q131.37279999999998 -14.2912 131.3952 -14.224L136.59199999999998 -3.0688Q137.10719999999998 -1.9264 137.51039999999998 -1.3328Q137.91359999999997 -0.7392 138.30559999999997 -0.504Q138.69759999999997 -0.2688 139.2128 -0.2688Q139.30239999999998 -0.2688 139.30239999999998 -0.1344Q139.30239999999998 0.0 139.2128 0.0ZM132.98559999999998 -8.0192 130.90239999999997 -12.4544 129.0656 -8.0192Z" fill="#0A1628"/>
<path d="M149.94559999999998 -13.0592Q149.16159999999996 -13.7312 148.33279999999996 -13.7312Q148.26559999999998 -13.7312 148.26559999999998 -13.8656Q148.26559999999998 -14.0 148.33279999999996 -14.0L149.8336 -13.9552L150.84159999999997 -14.0Q150.99839999999998 -14.0 151.0992 -13.9216Q151.2 -13.8432 151.3344 -13.5968Q151.58079999999998 -13.1936 151.87199999999999 -12.8352L160.71999999999997 -1.8368V-11.648Q160.71999999999997 -12.7904 160.36159999999995 -13.2608Q160.00319999999996 -13.7312 159.06239999999997 -13.7312Q159.0176 -13.7312 159.0176 -13.8656Q159.0176 -14.0 159.06239999999997 -14.0L159.91359999999997 -13.9776Q160.58559999999997 -13.9328 160.98879999999997 -13.9328Q161.3696 -13.9328 162.08639999999997 -13.9776L162.95999999999998 -14.0Q163.02719999999997 -14.0 163.02719999999997 -13.8656Q163.02719999999997 -13.7312 162.95999999999998 -13.7312Q161.99679999999998 -13.7312 161.60479999999998 -13.2608Q161.2128 -12.7904 161.2128 -11.648V0.2464Q161.2128 0.2912 161.1008 0.3136Q160.98879999999997 0.336 160.944 0.2912L150.81919999999997 -12.1632L150.43839999999997 -12.588799999999999V-2.3296Q150.43839999999997 -1.1872 150.81919999999997 -0.728Q151.2 -0.2688 152.14079999999998 -0.2688Q152.20799999999997 -0.2688 152.20799999999997 -0.1344Q152.20799999999997 0.0 152.14079999999998 0.0Q151.6032 0.0 151.31199999999998 -0.0224L150.2368 -0.0448L148.26559999999998 0.0Q148.22079999999997 0.0 148.22079999999997 -0.1344Q148.22079999999997 -0.2688 148.26559999999998 -0.2688Q149.22879999999998 -0.2688 149.5872 -0.7168Q149.94559999999998 -1.1648 149.94559999999998 -2.3296Z" fill="#0A1628"/></g>
</svg>