<svg xmlns="http://www.w3.org/2000/svg" width="400" height="400" viewBox="0 0 160 160">
  <path d="M 8 20 L 8 8 L 20 8" stroke="#B8922A" stroke-width="2" fill="none" stroke-linecap="round" stroke-linejoin="round"/>
<path d="M 140 8 L 152 8 L 152 20" stroke="#B8922A" stroke-width="2" fill="none" stroke-linecap="round" stroke-linejoin="round"/>
<path d="M 8 140 L 8 152 L 20 152" stroke="#B8922A" stroke-width="2" fill="none" stroke-linecap="round" stroke-linejoin="round"/>
<path d="M 140 152 L 152 152 L 152 140" stroke="#B8922A" stroke-width="2" fill="none" stroke-linecap="round" stroke-linejoin="round"/>
  <path d="M34.39999999999999 37.519999999999996Q29.599999999999994 31.92 21.439999999999994 31.92Q21.119999999999994 31.92 21.119999999999994 30.96Q21.119999999999994 30.0 21.439999999999994 30.0L31.039999999999996 30.319999999999993L38.08 30.0Q40.31999999999999 30.0 41.599999999999994 31.519999999999996Q42.879999999999995 33.03999999999999 45.44 38.31999999999999L81.44 116.08L117.28 34.0Q118.08 32.239999999999995 119.44 31.119999999999997Q120.8 30.0 122.08 30.0L128.16 30.319999999999993L135.36 30.159999999999997Q136.95999999999998 30.0 140.32 30.0Q140.64 30.0 140.64 30.96Q140.64 31.92 140.32 31.92Q132.0 31.92 128.56 34.08Q125.11999999999999 36.239999999999995 125.28 42.64L128.32 117.03999999999999Q128.48 122.0 129.51999999999998 124.24000000000001Q130.56 126.48 133.51999999999998 127.28Q136.48 128.08 142.72 128.08Q143.2 128.08 143.2 129.04000000000002Q143.2 130.0 142.72 130.0Q137.76 130.0 134.88 129.84L124.16 129.68L114.24 129.84Q111.84 130.0 107.52 130.0Q107.2 130.0 107.2 129.04000000000002Q107.2 128.08 107.52 128.08Q113.11999999999999 128.08 115.75999999999999 127.2Q118.39999999999999 126.32 119.28 124.08Q120.16 121.84 119.84 117.03999999999999L117.11999999999999 42.64L79.67999999999999 128.88Q79.36 129.52 78.39999999999999 129.52Q77.6 129.52 76.96 128.88L37.919999999999995 43.28L37.75999999999999 42.959999999999994L36.47999999999999 113.36Q36.31999999999999 121.68 39.199999999999996 124.88000000000001Q42.08 128.08 49.919999999999995 128.08Q50.239999999999995 128.08 50.239999999999995 129.04000000000002Q50.239999999999995 130.0 49.919999999999995 130.0Q45.44 130.0 43.03999999999999 129.84L34.39999999999999 129.68L20.319999999999993 130.0Q19.999999999999993 130.0 19.999999999999993 129.04000000000002Q19.999999999999993 128.08 20.319999999999993 128.08Q27.039999999999992 128.08 29.839999999999993 124.80000000000001Q32.63999999999999 121.52 32.8 113.36Z" fill="#0A1628"/>
</svg>